<svg width="24" height="23" viewBox="0 0 24 23" fill="none" xmlns="http://www.w3.org/2000/svg">
<path d="M12 12.4584C15.033 12.4584 17.5 10.0932 17.5 7.18752C17.5 4.28185 15.033 1.91669 12 1.91669C8.967 1.91669 6.5 4.28185 6.5 7.18752C6.5 10.0932 8.967 12.4584 12 12.4584ZM12 3.83335C13.93 3.83335 15.5 5.33794 15.5 7.18752C15.5 9.0371 13.93 10.5417 12 10.5417C10.07 10.5417 8.5 9.0371 8.5 7.18752C8.5 5.33794 10.07 3.83335 12 3.83335ZM20 17.2184V18.1873C20 19.1418 19.636 20.057 18.975 20.7642C18.777 20.976 18.504 21.0834 18.229 21.0834C17.992 21.0834 17.753 21.0028 17.562 20.839C17.15 20.4863 17.116 19.8797 17.484 19.4858C17.816 19.1303 17.999 18.6684 17.999 18.1873V17.2184C17.999 15.8777 17.072 14.7181 15.746 14.399C15.554 14.353 15.349 14.376 15.185 14.466C13.204 15.5221 10.786 15.5164 8.82397 14.4718C8.65097 14.3769 8.447 14.353 8.255 14.399C6.926 14.7181 6 15.8777 6 17.2184V18.1873C6 18.6693 6.18301 19.1303 6.51501 19.4858C6.88301 19.8797 6.84801 20.4863 6.43701 20.839C6.02501 21.1926 5.39302 21.1581 5.02502 20.7642C4.36402 20.057 4 19.1418 4 18.1873V17.2184C4 14.998 5.54903 13.0736 7.76703 12.5398C8.45403 12.3721 9.19803 12.4689 9.80603 12.8015C11.155 13.5183 12.836 13.5241 14.204 12.7957C14.803 12.467 15.547 12.3711 16.235 12.5388C18.451 13.0736 20 14.997 20 17.2184Z" fill="white"/>
</svg>
